<svg width="6" height="8" viewBox="0 0 6 8" fill="none" xmlns="http://www.w3.org/2000/svg">
<path d="M3.02966 0.36853C1.48406 0.36853 0.696861 1.15551 0.533661 2.24435L1.78166 2.8265C1.83926 2.03952 2.28086 1.60829 2.94326 1.60829C3.62486 1.60829 3.95126 1.95327 3.95126 2.4923C3.95126 3.1607 3.49046 3.52723 2.25206 3.67816L2.30966 5.30603H3.48086L3.54806 4.29265C4.56566 4.17407 5.36246 3.6027 5.36246 2.27669C5.36246 1.00458 4.39286 0.36853 3.02966 0.36853ZM2.89526 6.00676C2.38646 6.00676 2.07926 6.33018 2.07926 6.84765C2.07926 7.36511 2.38646 7.68853 2.89526 7.68853C3.39446 7.68853 3.72086 7.36511 3.72086 6.84765C3.72086 6.33018 3.39446 6.00676 2.89526 6.00676Z" fill="#B6B6B6"/>
</svg>
