<svg width="16" height="15" viewBox="0 0 16 15" fill="none" xmlns="http://www.w3.org/2000/svg">
<path fill-rule="evenodd" clip-rule="evenodd" d="M15 8.41667H1C0.44 8.41667 0 8.01333 0 7.5C0 6.98667 0.44 6.58333 1 6.58333H15C15.56 6.58333 16 6.98667 16 7.5C16 8.01333 15.56 8.41667 15 8.41667ZM15 1.83333H1C0.44 1.83333 0 1.43 0 0.916667C0 0.403333 0.44 0 1 0H15C15.56 0 16 0.403333 16 0.916667C16 1.43 15.56 1.83333 15 1.83333ZM1 13.1667H15C15.56 13.1667 16 13.57 16 14.0833C16 14.5967 15.56 15 15 15H1C0.44 15 0 14.5967 0 14.0833C0 13.57 0.44 13.1667 1 13.1667Z" fill="white"/>
</svg>
