<svg width="21" height="16" viewBox="0 0 21 16" fill="none" xmlns="http://www.w3.org/2000/svg">
<path d="M0 1.6C0 0.716344 0.723232 0 1.61538 0H19.3846C20.2768 0 21 0.716344 21 1.6C21 2.48366 20.2768 3.2 19.3846 3.2H1.61538C0.723232 3.2 0 2.48366 0 1.6Z" fill="#23C2A8"/>
<path d="M0 14.4C0 13.5163 0.723232 12.8 1.61538 12.8H19.3846C20.2768 12.8 21 13.5163 21 14.4C21 15.2837 20.2768 16 19.3846 16H1.61538C0.723232 16 0 15.2837 0 14.4Z" fill="#23C2A8"/>
<path d="M0 8C0 7.11634 0.723232 6.4 1.61538 6.4H14.5385C15.4306 6.4 16.1538 7.11634 16.1538 8C16.1538 8.88366 15.4306 9.6 14.5385 9.6H1.61538C0.723233 9.6 0 8.88366 0 8Z" fill="#23C2A8"/>
</svg>
