<svg width="10" height="10" viewBox="0 0 10 10" fill="none" xmlns="http://www.w3.org/2000/svg">
<path d="M9.49042 0.50969C9.16405 0.183269 8.72138 -7.65933e-05 8.25979 -2.33262e-05C7.79794 -0.001355 7.35481 0.18231 7.02935 0.509982L1.04205 6.49678C0.992376 6.54682 0.954903 6.60765 0.932504 6.6745L0.0234207 9.40178C-0.0559206 9.63996 0.0728525 9.89735 0.311036 9.97666C0.357246 9.99206 0.405639 9.99992 0.454325 9.99997C0.503118 9.99989 0.551617 9.99206 0.59796 9.9768L3.32523 9.06771C3.39222 9.04534 3.45308 9.00768 3.50296 8.95772L9.49024 2.97044C10.1698 2.29097 10.1699 1.18924 9.49042 0.50969Z" fill="#23C2A8"/>
</svg>
