<svg width="20" height="20" viewBox="0 0 20 20" fill="none" xmlns="http://www.w3.org/2000/svg">
<path d="M13.6135 12.195C14.5264 10.9254 15.0724 9.36589 15.0724 7.6753C15.0724 3.44329 11.6915 0 7.53618 0C3.38085 0 0 3.44329 0 7.6753C0 11.9073 3.38089 15.3506 7.53622 15.3506C9.19617 15.3506 10.7275 14.7944 11.9741 13.8647L17.526 19.1983C17.9883 19.6425 18.7221 19.6317 19.1713 19.1742C19.6275 18.7096 19.6166 17.9619 19.147 17.5108L13.6135 12.195ZM7.53622 12.989C4.65918 12.989 2.31885 10.6054 2.31885 7.6753C2.31885 4.74517 4.65918 2.36165 7.53622 2.36165C10.4133 2.36165 12.7536 4.74517 12.7536 7.6753C12.7536 10.6054 10.4132 12.989 7.53622 12.989Z" fill="#23C2A8"/>
</svg>
