<svg width="16" height="18" viewBox="0 0 16 18" fill="none" xmlns="http://www.w3.org/2000/svg">
<path d="M15.1602 2.80285L8.26961 0.0517906C8.097 -0.0171067 7.90297 -0.0171405 7.73039 0.0517906L0.839762 2.80285C0.57732 2.90765 0.40625 3.15403 0.40625 3.42728V6.77157C0.40625 11.3764 3.30063 15.5186 7.73429 17.2588C7.90459 17.3256 8.09538 17.3256 8.26571 17.2588C12.6993 15.5187 15.5938 11.3765 15.5938 6.77157V3.42728C15.5938 3.15403 15.4227 2.90765 15.1602 2.80285ZM14.1875 6.77157C14.1875 10.6862 11.7969 14.2898 8 15.8984C4.30459 14.3328 1.8125 10.7923 1.8125 6.77157V3.87867L8 1.4083L14.1875 3.87867V6.77157ZM7.22284 9.05059L10.245 6.1445C10.5196 5.88047 10.9648 5.88044 11.2394 6.1445C11.514 6.40856 11.5139 6.83665 11.2393 7.10068L7.72002 10.4849C7.44537 10.749 7.00019 10.7489 6.72566 10.4849L4.76063 8.59529C4.48603 8.33123 4.48603 7.90314 4.76063 7.63911C5.03524 7.37509 5.48042 7.37505 5.75499 7.63911L7.22284 9.05059Z" fill="#81C719"/>
</svg>
