<svg width="15" height="15" viewBox="0 0 15 15" fill="none" xmlns="http://www.w3.org/2000/svg">
<path d="M3.8573 3.17063L3.33121 2.56552C3.82006 2.15141 4.36291 1.8145 4.94793 1.56221L5.25275 2.30447C4.74836 2.52316 4.2797 2.81415 3.8573 3.17063ZM12.8966 9.2421C13.0635 8.71729 13.1526 8.17069 13.1619 7.61461L13.835 7.59778L13.9618 7.60044C13.9527 8.25709 13.8494 8.89115 13.6545 9.49923L12.8966 9.2421ZM11.2915 3.30044C10.8815 2.92961 10.423 2.62246 9.92605 2.38579L10.2567 1.65474C10.8331 1.92743 11.364 2.28329 11.8378 2.7138L11.2915 3.30044ZM2.09071 5.83343L1.32211 5.60939C1.50975 4.9981 1.78627 4.4203 2.14479 3.8893L2.80039 4.34923C2.4918 4.80805 2.2536 5.3065 2.09071 5.83343ZM13.7401 5.82518L12.9648 6.02233C12.8202 5.49006 12.5992 4.98366 12.3069 4.51446L12.9781 4.07758C13.3179 4.62079 13.574 5.20776 13.7401 5.82518ZM6.77558 1.88581L6.66028 1.09149C7.28884 1.00972 7.93789 1.02103 8.56054 1.12408L8.41743 1.91399C7.8798 1.82622 7.31891 1.81655 6.77558 1.88581ZM1.27363 9.25792C1.11686 8.69347 1.0375 8.10832 1.0375 7.51706C1.0375 7.46668 1.03803 7.41653 1.03915 7.36661L1.83884 7.39669C1.83797 7.4367 1.83752 7.47687 1.83752 7.51706C1.83752 8.03109 1.9061 8.54006 2.04102 9.03067L1.27363 9.25792ZM8.1819 13.1536C8.72943 13.0878 9.26132 12.9428 9.76501 12.7218L10.0984 13.4516C9.51471 13.709 8.89824 13.8771 8.26316 13.9521L8.1819 13.1536ZM12.8835 11.1032C12.5302 11.6356 12.1024 12.1109 11.6095 12.5182L11.11 11.8913C11.5348 11.5387 11.9044 11.1281 12.2107 10.6689L12.8835 11.1032ZM4.67418 13.346L5.03583 12.6299C5.53173 12.8705 6.05756 13.0362 6.60149 13.1232L6.48919 13.9181C5.85824 13.8185 5.24863 13.6263 4.67418 13.346ZM3.19956 12.3538C2.72294 11.9278 2.31369 11.4362 1.98146 10.8907L2.6707 10.4831C2.95882 10.9534 3.31215 11.3778 3.72324 11.7469L3.19956 12.3538Z" fill="white" stroke="#FD8516" stroke-width="0.2"/>
</svg>
